# xmcd
# 
# Track frame offsets:
#     150
#     25617
#     37932
#     53242
#     72042
#     80602
#     102168
# 
# Disc length: 1548
# 
# Revision: 1
# Processed by: cddbd v1.5.2PL0 Copyright (c) Steve Scherf et al.
# Submitted via: fre:ac v1.0.17
# 
DISCID=4b060a07
DTITLE=John Gaar Band - The John Gaar Band
DYEAR=1999
DGENRE=Blues
TTITLE0=fg nb8vo5
TTITLE1=0obyo06g
TTITLE2=0'tdho05mq
TTITLE3=kl;gkj dtk
TTITLE4=lgh p54n
TTITLE5=3 56o5 
TTITLE6=ml rhyo6tg
EXTD=
EXTT0=
EXTT1=
EXTT2=
EXTT3=
EXTT4=
EXTT5=
EXTT6=
PLAYORDER=
